<?xml version="1.0" encoding="UTF-8" standalone="no"?>
<!-- Created with Inkscape (http://www.inkscape.org/) -->

<svg
   width="82.513786mm"
   height="142.3174mm"
   viewBox="0 0 82.513786 142.3174"
   version="1.1"
   id="svg1"
   xml:space="preserve"
   inkscape:version="1.4-beta3 (01c8a1c, 2024-08-28)"
   sodipodi:docname="dummy.svg"
   xmlns:inkscape="http://www.inkscape.org/namespaces/inkscape"
   xmlns:sodipodi="http://sodipodi.sourceforge.net/DTD/sodipodi-0.dtd"
   xmlns="http://www.w3.org/2000/svg"
   xmlns:svg="http://www.w3.org/2000/svg"><sodipodi:namedview
     id="namedview1"
     pagecolor="#505050"
     bordercolor="#ffffff"
     borderopacity="1"
     inkscape:showpageshadow="0"
     inkscape:pageopacity="0"
     inkscape:pagecheckerboard="1"
     inkscape:deskcolor="#505050"
     inkscape:document-units="mm"
     inkscape:zoom="1.1641073"
     inkscape:cx="203.15997"
     inkscape:cy="223.34711"
     inkscape:window-width="1642"
     inkscape:window-height="998"
     inkscape:window-x="2790"
     inkscape:window-y="1082"
     inkscape:window-maximized="0"
     inkscape:current-layer="layer1" /><defs
     id="defs1" /><g
     inkscape:label="Layer 1"
     inkscape:groupmode="layer"
     id="layer1"
     transform="translate(-63.619504,-83.785977)"><path
       style="fill:#000000;fill-opacity:1;stroke:#000000;stroke-width:1.05833;stroke-linecap:round;stroke-linejoin:round;stroke-dasharray:none"
       d="m 124.97797,174.69641 c 2.40099,-1.94985 3.7392,-4.11225 4.63091,-6.36396 -1.83006,-2.14913 -4.30826,-2.69395 -6.81852,-2.50013 z"
       id="path15"
       sodipodi:nodetypes="cccc" /><path
       style="fill:#e5c3a2;fill-opacity:1;stroke:#000000;stroke-width:1.05833;stroke-linecap:round;stroke-linejoin:round;stroke-dasharray:none"
       d="m 129.60888,168.92907 c 6.03046,5.48388 8.80037,11.89022 9.54594,19.03506 -2.91318,2.1396 -6.58308,3.94809 -10.85283,3.97747 -1.52747,-6.95334 -2.73145,-14.01451 -7.32991,-19.94419 z"
       id="path16"
       sodipodi:nodetypes="ccccc" /><path
       style="fill:#e5c3a2;fill-opacity:1;stroke:#000000;stroke-width:1.05833;stroke-linecap:round;stroke-linejoin:round;stroke-dasharray:none"
       d="m 138.8139,193.0212 c 0.14165,4.03508 -0.14185,6.9003 -2.35808,7.55721 -3.94109,1.16817 -4.26495,-2.71847 -5.36959,-5.25595 z"
       id="path18"
       sodipodi:nodetypes="cscc" /><path
       style="fill:#000000;fill-opacity:1;stroke:#000000;stroke-width:1.05833;stroke-linecap:round;stroke-linejoin:round;stroke-dasharray:none"
       d="m 128.81339,191.94161 c 0.38521,1.3384 0.79337,2.66369 2.21602,3.40926 3.63638,0.52248 6.16692,-0.72438 8.29588,-2.61377 0.13802,-1.59208 0.15663,-3.16027 -0.45457,-4.6025 -2.15656,1.83547 -5.0384,3.32739 -10.05733,3.80701 z"
       id="path17"
       sodipodi:nodetypes="ccccc" /><path
       style="fill:#000000;fill-opacity:1;stroke:#000000;stroke-width:1.05833;stroke-linecap:round;stroke-linejoin:round;stroke-dasharray:none"
       d="m 86.758001,164.74749 c -1.288978,2.81162 -1.530969,5.34307 -1.333089,7.75682 2.592665,1.11623 5.055828,0.50702 7.22057,-0.77862 z"
       id="path19"
       sodipodi:nodetypes="cccc" /><path
       style="fill:#e5c3a2;fill-opacity:1;stroke:#000000;stroke-width:1.05833;stroke-linecap:round;stroke-linejoin:round;stroke-dasharray:none"
       d="m 85.160652,171.9694 c -7.83562,-2.24554 -13.156556,-6.76231 -16.989661,-12.83783 1.664139,-3.2086 4.153379,-6.45552 7.968438,-8.37306 4.449301,5.5575 8.656336,11.35496 15.405545,14.63446 z"
       id="path20"
       sodipodi:nodetypes="ccccc" /><path
       style="fill:#e5c3a2;fill-opacity:1;stroke:#000000;stroke-width:1.05833;stroke-linecap:round;stroke-linejoin:round;stroke-dasharray:none"
       d="m 66.236721,154.44662 c -1.914252,-3.55494 -2.929168,-6.24934 -1.233157,-7.81993 3.015993,-2.79295 5.027858,0.54819 7.142155,2.33391 z"
       id="path21"
       sodipodi:nodetypes="cscc" /><path
       style="fill:#000000;fill-opacity:1;stroke:#000000;stroke-width:1.05833;stroke-linecap:round;stroke-linejoin:round;stroke-dasharray:none"
       d="m 75.680926,150.98501 c -0.938179,-1.02933 -1.891128,-2.03674 -3.496849,-2.07505 -3.491642,1.14223 -5.208143,3.38096 -6.28001,6.01788 0.581436,1.48852 1.259349,2.90274 2.44613,3.92506 1.120494,-2.60081 3.043412,-5.21485 7.330729,-7.86789 z"
       id="path22"
       sodipodi:nodetypes="ccccc" /><g
       id="g30"
       transform="matrix(-1,0,0,1,214.46925,-0.11364216)"><path
         style="opacity:1;fill:#e5c3a2;fill-opacity:1;stroke:#000000;stroke-width:1.05833;stroke-linecap:round;stroke-linejoin:round;stroke-dasharray:none"
         d="m 110.67187,218.25 c -1.33682,1.66677 -1.98496,3.43685 -1.18526,5.4241 4.60945,2.23536 9.62257,2.62058 13.78125,0.50223 1.21334,-0.61804 -1.11369,-4.16823 -4.27902,-5.00223 l -0.10045,-1.18526 z"
         id="path27"
         sodipodi:nodetypes="ccsccc" /><path
         style="opacity:1;fill:#e5c3a2;fill-opacity:1;stroke:#000000;stroke-width:1.05833;stroke-linecap:round;stroke-linejoin:round;stroke-dasharray:none"
         d="m 109.52679,207.16071 c -0.12932,3.85102 0.11943,7.59892 1.16517,11.12947 2.93635,0.34302 5.79541,0.33828 8.51786,-0.28126 3.95541,-4.37183 5.09688,-10.09852 6.22768,-15.83035 -4.52174,2.21259 -9.57489,4.05007 -15.91071,4.98214 z"
         id="path28"
         sodipodi:nodetypes="ccccc" /><path
         style="opacity:1;fill:none;fill-opacity:1;stroke:#000000;stroke-width:1.05833;stroke-linecap:round;stroke-linejoin:round;stroke-dasharray:none"
         d="m 109.84821,213.70982 c 4.2988,0.72787 8.12906,0.45943 12.21429,-0.20089"
         id="path29"
         sodipodi:nodetypes="cc" /><path
         style="opacity:1;fill:#e5c3a2;fill-opacity:1;stroke:#000000;stroke-width:1.05833;stroke-linecap:round;stroke-linejoin:round;stroke-dasharray:none"
         d="m 119.08928,219.21428 -1.60714,0.54241"
         id="path30"
         sodipodi:nodetypes="cc" /></g><path
       style="opacity:1;fill:#e5c3a2;fill-opacity:1;stroke:#000000;stroke-width:1.5875;stroke-linecap:round;stroke-linejoin:round;stroke-dasharray:none"
       d="m 100.32867,163.12328 c -3.238306,0.5618 -9.320993,3.215 -9.320993,3.215 -3.420185,12.6139 -3.973019,24.4841 -1.6075,35.598 12.108793,6.74544 24.105473,6.53962 35.999993,0 2.52578,-12.87297 0.4291,-23.99349 -2.33036,-35.598 0,0 -5.73283,-2.77177 -8.75893,-3.215 -4.61182,-0.67549 -9.38979,-0.79672 -13.98221,0 z"
       id="path12"
       sodipodi:nodetypes="sccccss" /><path
       id="rect13"
       style="opacity:1;fill:#000000;fill-opacity:1;stroke:#000000;stroke-width:1.05833;stroke-linecap:round;stroke-linejoin:round"
       d="m 100.92935,159.49471 c 5.0838,1.83362 8.50857,1.66035 12.2992,-0.0661 0.38639,1.54111 0.43917,3.35442 0.4777,4.83044 -4.53801,3.11606 -8.78159,3.08003 -13.0887,0.21308 -0.0908,-1.47509 0.0569,-3.2895 0.3118,-4.97737 z"
       sodipodi:nodetypes="ccccc" /><path
       style="opacity:1;fill:#e5c3a2;fill-opacity:1;stroke:#000000;stroke-width:1.5875;stroke-linecap:round;stroke-linejoin:round;stroke-dasharray:none"
       d="m 139.594,116.71874 c 2.03382,0.0956 3.92545,0.83101 5.74554,1.8884 v 14.66518 c -2.71108,1.85766 -5.33781,3.08263 -7.83482,3.33482 2.17424,-6.51628 3.00982,-13.15952 2.08928,-19.8884 z"
       id="path11"
       sodipodi:nodetypes="ccccc" /><path
       style="opacity:1;fill:#e5c3a2;fill-opacity:1;stroke:#000000;stroke-width:1.5875;stroke-linecap:round;stroke-linejoin:round;stroke-dasharray:none"
       d="m 73.92857,116.71874 c -2.033823,0.0956 -3.925451,0.83101 -5.745536,1.8884 v 14.66518 c 2.711081,1.85766 5.337803,3.08263 7.834821,3.33482 -2.174239,-6.51628 -3.00982,-13.15952 -2.089285,-19.8884 z"
       id="path10"
       sodipodi:nodetypes="ccccc" /><path
       id="path1"
       style="opacity:1;fill:#e5c3a2;fill-opacity:1;stroke:#000000;stroke-width:1.5875;stroke-dasharray:none"
       d="m 139.56391,122.35753 c 1e-5,20.77535 -14.23252,37.45639 -32.97873,37.45639 -18.746213,0 -33.139449,-17.00247 -33.139447,-37.77781 2e-6,-20.77535 14.393237,-37.456382 33.139447,-37.456383 18.74621,0 32.97873,17.002463 32.97873,37.777803 z"
       sodipodi:nodetypes="sssss" /><ellipse
       style="fill:#000000;stroke:#000000;stroke-width:1.52227"
       id="path2"
       cx="87.869202"
       cy="119.44981"
       rx="9.6731997"
       ry="9.6733627" /><circle
       style="fill:#000000;stroke:#000000;stroke-width:1.52229"
       id="path2-1"
       cx="125.25865"
       cy="119.2898"
       r="9.673357" /><path
       style="fill:#000000;stroke:#000000;stroke-width:1.666;stroke-linecap:round;stroke-linejoin:round"
       d="m 78.467408,105.66964 c 6.594346,-0.81802 13.119046,1.35864 18.803569,3.21429 -4.793293,-3.98375 -11.420316,-7.38983 -18.803569,-3.21429 z"
       id="path3"
       sodipodi:nodetypes="ccc" /><path
       style="fill:#000000;stroke:#000000;stroke-width:1.666;stroke-linecap:round;stroke-linejoin:round"
       d="m 134.77393,105.66964 c -6.59435,-0.81802 -13.11905,1.35864 -18.80357,3.21429 4.79329,-3.98375 11.42032,-7.38983 18.80357,-3.21429 z"
       id="path4"
       sodipodi:nodetypes="ccc" /><path
       style="fill:#000000;stroke:#000000;stroke-width:2.01209;stroke-linecap:round;stroke-linejoin:round"
       id="path5"
       sodipodi:type="arc"
       sodipodi:cx="106.67411"
       sodipodi:cy="138.34712"
       sodipodi:rx="9.4698057"
       sodipodi:ry="7.5282154"
       sodipodi:start="6.2440019"
       sodipodi:end="3.1833779"
       sodipodi:arc-type="slice"
       d="m 116.13665,138.05222 a 9.4698057,7.5282154 0 0 1 -4.62799,6.76815 9.4698057,7.5282154 0 0 1 -9.69027,-0.01 9.4698057,7.5282154 0 0 1 -4.605819,-6.77769 l 9.461539,0.31447 z" /><g
       id="g13"><circle
         style="fill:#ffff00;stroke:#000000;stroke-width:1.05833;stroke-linecap:round;stroke-linejoin:round;stroke-dasharray:none"
         id="path6"
         cx="106.4866"
         cy="96.57608"
         r="7.4922256" /><path
         style="fill:#000000;stroke:none;stroke-width:1.55255;stroke-linecap:round;stroke-linejoin:round"
         id="circle6"
         sodipodi:type="arc"
         sodipodi:cx="-96.57608"
         sodipodi:cy="106.4866"
         sodipodi:rx="7.4922256"
         sodipodi:ry="7.4922256"
         sodipodi:start="0"
         sodipodi:end="1.5707963"
         sodipodi:arc-type="slice"
         d="m -89.083855,106.4866 a 7.4922256,7.4922256 0 0 1 -7.492225,7.49223 v -7.49223 z"
         transform="rotate(-90)" /><path
         style="fill:#000000;stroke:none;stroke-width:1.55255;stroke-linecap:round;stroke-linejoin:round"
         id="path7"
         sodipodi:type="arc"
         sodipodi:cx="96.57608"
         sodipodi:cy="-106.4866"
         sodipodi:rx="7.4922256"
         sodipodi:ry="7.4922256"
         sodipodi:start="0"
         sodipodi:end="1.5707963"
         sodipodi:arc-type="slice"
         d="m 104.06831,-106.4866 a 7.4922256,7.4922256 0 0 1 -7.49223,7.492223 v -7.492223 z"
         transform="rotate(90)" /></g><circle
       style="opacity:1;fill:#ffffff;fill-opacity:1;stroke:none;stroke-width:1.78018;stroke-linecap:round;stroke-linejoin:round"
       id="path8"
       cx="87.509598"
       cy="116.79977"
       r="2.773" /><circle
       style="opacity:1;fill:#ffffff;fill-opacity:1;stroke:none;stroke-width:1.78018;stroke-linecap:round;stroke-linejoin:round"
       id="circle8"
       cx="124.4433"
       cy="116.79977"
       r="2.773" /><circle
       style="opacity:1;fill:#ffffff;fill-opacity:1;stroke:none;stroke-width:0.813534;stroke-linecap:round;stroke-linejoin:round"
       id="circle9"
       cx="83.986687"
       cy="120.4079"
       r="1.2672414" /><circle
       style="opacity:1;fill:#ffffff;fill-opacity:1;stroke:none;stroke-width:0.813534;stroke-linecap:round;stroke-linejoin:round"
       id="circle10"
       cx="120.86357"
       cy="120.52154"
       r="1.2672414" /><g
       id="g14"
       transform="matrix(0.52271955,0,0,0.52271955,51.583976,121.86305)"
       style="stroke-width:1.91307"><circle
         style="fill:#ffff00;stroke:#000000;stroke-width:2.02466;stroke-linecap:round;stroke-linejoin:round;stroke-dasharray:none"
         id="circle13"
         cx="106.4866"
         cy="96.57608"
         r="7.4922256" /><path
         style="fill:#000000;stroke:none;stroke-width:2.97014;stroke-linecap:round;stroke-linejoin:round"
         id="path13"
         sodipodi:type="arc"
         sodipodi:cx="-96.57608"
         sodipodi:cy="106.4866"
         sodipodi:rx="7.4922256"
         sodipodi:ry="7.4922256"
         sodipodi:start="0"
         sodipodi:end="1.5707963"
         sodipodi:arc-type="slice"
         d="m -89.083855,106.4866 a 7.4922256,7.4922256 0 0 1 -7.492225,7.49223 v -7.49223 z"
         transform="rotate(-90)" /><path
         style="fill:#000000;stroke:none;stroke-width:2.97014;stroke-linecap:round;stroke-linejoin:round"
         id="path14"
         sodipodi:type="arc"
         sodipodi:cx="96.57608"
         sodipodi:cy="-106.4866"
         sodipodi:rx="7.4922256"
         sodipodi:ry="7.4922256"
         sodipodi:start="0"
         sodipodi:end="1.5707963"
         sodipodi:arc-type="slice"
         d="m 104.06831,-106.4866 a 7.4922256,7.4922256 0 0 1 -7.49223,7.492223 v -7.492223 z"
         transform="rotate(90)" /></g><g
       id="g26"><path
         style="opacity:1;fill:#e5c3a2;fill-opacity:1;stroke:#000000;stroke-width:1.05833;stroke-linecap:round;stroke-linejoin:round;stroke-dasharray:none"
         d="m 110.67187,218.25 c -1.33682,1.66677 -1.98496,3.43685 -1.18526,5.4241 4.60945,2.23536 9.62257,2.62058 13.78125,0.50223 1.21334,-0.61804 -1.11369,-4.16823 -4.27902,-5.00223 l -0.10045,-1.18526 z"
         id="path25"
         sodipodi:nodetypes="ccsccc" /><path
         style="opacity:1;fill:#e5c3a2;fill-opacity:1;stroke:#000000;stroke-width:1.05833;stroke-linecap:round;stroke-linejoin:round;stroke-dasharray:none"
         d="m 109.52679,207.16071 c -0.12932,3.85102 0.11943,7.59892 1.16517,11.12947 2.93635,0.34302 5.79541,0.33828 8.51786,-0.28126 3.95541,-4.37183 5.09688,-10.09852 6.22768,-15.83035 -4.52174,2.21259 -9.57489,4.05007 -15.91071,4.98214 z"
         id="path23"
         sodipodi:nodetypes="ccccc" /><path
         style="opacity:1;fill:none;fill-opacity:1;stroke:#000000;stroke-width:1.05833;stroke-linecap:round;stroke-linejoin:round;stroke-dasharray:none"
         d="m 109.84821,213.70982 c 4.2988,0.72787 8.12906,0.45943 12.21429,-0.20089"
         id="path24"
         sodipodi:nodetypes="cc" /><path
         style="opacity:1;fill:#e5c3a2;fill-opacity:1;stroke:#000000;stroke-width:1.05833;stroke-linecap:round;stroke-linejoin:round;stroke-dasharray:none"
         d="m 119.08928,219.21428 -1.60714,0.54241"
         id="path26"
         sodipodi:nodetypes="cc" /></g></g></svg>
