<?xml version="1.0" encoding="UTF-8" standalone="no"?>
<!-- Generator: Adobe Illustrator 28.0.0, SVG Export Plug-In . SVG Version: 6.00 Build 0)  -->

<svg
   version="1.1"
   id="Layer_1"
   x="0px"
   y="0px"
   viewBox="0 0 1414.0001 379.32999"
   xml:space="preserve"
   sodipodi:docname="MAXPAIN final.svg"
   width="1414"
   height="379.32999"
   inkscape:version="1.4-beta3 (01c8a1c, 2024-08-28)"
   xmlns:inkscape="http://www.inkscape.org/namespaces/inkscape"
   xmlns:sodipodi="http://sodipodi.sourceforge.net/DTD/sodipodi-0.dtd"
   xmlns="http://www.w3.org/2000/svg"
   xmlns:svg="http://www.w3.org/2000/svg"><defs
   id="defs51">
	
	
	
</defs><sodipodi:namedview
   id="namedview51"
   pagecolor="#505050"
   bordercolor="#ffffff"
   borderopacity="1"
   inkscape:showpageshadow="0"
   inkscape:pageopacity="0"
   inkscape:pagecheckerboard="1"
   inkscape:deskcolor="#505050"
   inkscape:zoom="1.7055556"
   inkscape:cx="674.85342"
   inkscape:cy="212.24756"
   inkscape:window-width="3840"
   inkscape:window-height="2088"
   inkscape:window-x="0"
   inkscape:window-y="0"
   inkscape:window-maximized="1"
   inkscape:current-layer="g38" />
<style
   type="text/css"
   id="style1">
	.st0{fill:#EE7127;}
	.st1{fill:#EB1D25;}
	.st2{fill:url(#SVGID_1_);}
	.st3{fill:url(#SVGID_00000180340843952113349560000001028111113861137809_);}
	.st4{fill:url(#SVGID_00000008845251418371300010000017787078978484786858_);}
	.st5{fill:url(#SVGID_00000125594050373434743500000011723228234342577288_);}
	.st6{fill:#F04E23;stroke:#F04E23;stroke-width:2;stroke-miterlimit:10;}
	.st7{fill:url(#SVGID_00000114031406096286584330000014096141713508689320_);}
	.st8{fill:url(#SVGID_00000016035123382152468340000013526225811953855893_);}
	.st9{fill:url(#SVGID_00000007407428268157525640000014281118888852774296_);}
	.st10{fill:url(#SVGID_00000057125843302113829820000018050669551459484316_);}
	.st11{fill:url(#SVGID_00000160874215141669667690000004205280963290829755_);}
	.st12{fill:url(#SVGID_00000013176212180695349240000002137379440491837880_);}
	.st13{fill:url(#SVGID_00000065771204863097335070000014030545886391484348_);}
</style>
<g
   id="g2"
   transform="translate(-382.28,-327.89)">
	<path
   class="st0"
   d="m 1756.01,330.81 h -8.05 v -2.92 h 19.42 v 2.92 h -8.05 v 20.56 h -3.32 z"
   id="path1" />
	<path
   class="st0"
   d="m 1793.07,351.37 -0.03,-17.11 -8.49,14.26 h -1.54 l -8.49,-14.16 v 17.01 h -3.22 v -23.48 h 2.75 l 9.79,16.5 9.66,-16.5 h 2.75 l 0.03,23.48 z"
   id="path2" />
</g>
<g
   id="g3"
   transform="translate(-382.28,-327.89)">
	<path
   class="st1"
   d="M 613.53,618.04 613.16,461.9 554.6,618.04 h -49.9 l -59.88,-152.8 v 152.8 H 382.28 V 357.8 h 74.42 l 72.8,161.72 71.68,-161.72 h 73.68 l 0.74,260.24 z"
   id="path3" />
</g>
<g
   id="g4"
   transform="translate(-382.28,-327.89)">
	<path
   class="st1"
   d="m 1079.63,618.04 -52.22,-79.16 -46.8,79.16 H 908.72 L 993.43,485.69 909.2,357.8 h 71.41 l 52.47,79.3 46.55,-79.3 h 71.62 l -82.67,132.12 88.88,128.11 h -77.83 z"
   id="path4" />
</g>
<g
   id="g5"
   transform="translate(-382.28,-327.89)">
	<path
   class="st1"
   d="m 847.16,572.93 -96.5,0.96 -18.24,44.15 H 665 L 760.97,357.8 h 76.09 l 97,260.24 h -70.15 z m -17.12,-55.06 -30.53,-98.33 -31.04,98.33 z"
   id="path5" />
</g>
<g
   id="g12"
   transform="translate(-382.28,-327.89)">
	<radialGradient
   id="SVGID_1_"
   cx="1135.4548"
   cy="527.18457"
   r="608.76862"
   gradientUnits="userSpaceOnUse">
		<stop
   offset="0.1425"
   style="stop-color:#E62B2B"
   id="stop5" />
		<stop
   offset="1"
   style="stop-color:#FFC41A"
   id="stop6" />
	</radialGradient>
	<polygon
   class="st2"
   points="1685.36,618.04 1574.58,474.51 1574.58,618.04 1538.73,618.04 1538.73,357.8 1569.76,357.8 1680.52,501.66 1680.52,357.8 1745.97,357.8 1745.97,618.04 "
   id="polygon6"
   style="fill:url(#SVGID_1_)" />
	
		<radialGradient
   id="SVGID_00000176738150519201296590000009294264951544892344_"
   cx="1135.4548"
   cy="527.18457"
   r="517.33112"
   gradientUnits="userSpaceOnUse">
		<stop
   offset="0"
   style="stop-color:#E62B2B"
   id="stop7" />
		<stop
   offset="1"
   style="stop-color:#FFC41A"
   id="stop8" />
	</radialGradient>
	<polygon
   style="fill:url(#SVGID_00000176738150519201296590000009294264951544892344_)"
   points="1522.75,618.04 1509.15,585.26 1499.01,560.78 1460.55,467.94 1460.55,357.8 1528.58,357.8 1528.58,618.04 "
   id="polygon8" />
	
		<radialGradient
   id="SVGID_00000025409921769232139360000000375089565631004844_"
   cx="1135.4548"
   cy="527.18457"
   r="517.33112"
   gradientUnits="userSpaceOnUse">
		<stop
   offset="0"
   style="stop-color:#E62B2B"
   id="stop9" />
		<stop
   offset="1"
   style="stop-color:#FFC41A"
   id="stop10" />
	</radialGradient>
	<path
   style="fill:url(#SVGID_00000025409921769232139360000000375089565631004844_)"
   d="M 1509.15,611.77 1499,587.28 1460.54,494.47 1450.4,470 1403.93,357.8 h -56.11 l -11.56,27.82 c 14.76,17.38 22.23,38.33 22.23,62.51 0,28.87 -10.61,53.27 -31.5,72.54 -16.09,15.14 -35.65,24.34 -58.3,27.48 l -29.08,69.89 h 71.02 l 15.61,-38.67 h 99.24 l 15.25,38.67 h 71.02 z m -159.1,-92.26 26.04,-64.69 25.61,64.69 z"
   id="path10" />
	
		<radialGradient
   id="SVGID_00000106115190529600799800000015912827611459043735_"
   cx="1135.4548"
   cy="527.18457"
   r="517.33112"
   gradientUnits="userSpaceOnUse">
		<stop
   offset="0"
   style="stop-color:#E62B2B"
   id="stop11" />
		<stop
   offset="1"
   style="stop-color:#FFC41A"
   id="stop12" />
	</radialGradient>
	<path
   style="fill:url(#SVGID_00000106115190529600799800000015912827611459043735_)"
   d="m 1331.79,396.33 c -2.19,-3 -4.66,-5.88 -7.37,-8.65 -1.24,-1.32 -2.56,-2.6 -3.95,-3.84 -18.59,-17.48 -41.98,-26.04 -69.88,-26.04 h -119.72 v 260.24 h 68.05 v -78.82 h 51.68 c 3.76,0 7.44,-0.16 11.02,-0.47 3.99,-0.34 7.84,-0.88 11.64,-1.62 17.98,-3.51 33.56,-11.43 46.85,-23.93 18.95,-17.48 28.26,-39.41 28.26,-65.04 -0.01,-19.74 -5.53,-37.08 -16.58,-51.83 z m -81.19,80.42 h -51.68 v -56.49 h 51.68 c 15.25,0 27.15,11.9 27.15,27.89 -0.01,16.33 -11.91,28.6 -27.15,28.6 z"
   id="path12" />
</g>
<g
   id="g36"
   transform="translate(-382.28,-327.89)">
	<g
   id="g35">
		<path
   class="st6"
   d="m 421.94,668.47 h 3.17 v 37.02 H 422 V 673.6 l -15.34,20.84 h -0.74 L 390.58,673.6 v 31.89 h -3.12 v -37.02 h 3.17 l 15.66,21.31 z"
   id="path13" />
		<path
   class="st6"
   d="m 460.34,702.48 h 23.27 v 3.01 h -26.39 v -37.02 h 25.76 v 2.96 h -22.64 v 13.86 h 21.63 v 2.96 h -21.63 z"
   id="path14" />
		<path
   class="st6"
   d="m 536.11,670.8 c 2.84,1.55 5.05,3.73 6.64,6.53 1.59,2.8 2.38,6.02 2.38,9.65 0,3.63 -0.79,6.85 -2.38,9.65 -1.59,2.8 -3.8,4.98 -6.64,6.53 -2.84,1.55 -6.09,2.33 -9.76,2.33 H 513.6 v -37.02 h 12.75 c 3.67,0 6.92,0.78 9.76,2.33 z m -1.67,29.72 c 2.36,-1.3 4.21,-3.14 5.53,-5.5 1.32,-2.36 1.98,-5.04 1.98,-8.04 0,-3 -0.66,-5.68 -1.98,-8.04 -1.32,-2.36 -3.17,-4.2 -5.53,-5.5 -2.36,-1.3 -5.06,-1.96 -8.09,-1.96 h -9.63 v 30.99 h 9.63 c 3.03,0.01 5.73,-0.64 8.09,-1.95 z"
   id="path15" />
		<path
   class="st6"
   d="m 574.8,668.47 h 3.12 v 37.02 h -3.12 z"
   id="path16" />
		<path
   class="st6"
   d="m 616.79,703.75 c -2.89,-1.62 -5.14,-3.9 -6.74,-6.82 -1.61,-2.93 -2.41,-6.24 -2.41,-9.94 0,-3.7 0.8,-7.02 2.41,-9.94 1.6,-2.93 3.85,-5.2 6.74,-6.82 2.89,-1.62 6.19,-2.43 9.89,-2.43 2.57,0 5,0.48 7.27,1.43 2.27,0.95 4.28,2.35 6,4.18 l -2.17,2.01 c -1.45,-1.52 -3.11,-2.66 -5,-3.44 -1.89,-0.77 -3.91,-1.16 -6.06,-1.16 -3.1,0 -5.86,0.68 -8.28,2.04 -2.42,1.36 -4.3,3.27 -5.66,5.74 -1.36,2.47 -2.04,5.27 -2.04,8.41 0,3.14 0.68,5.94 2.04,8.41 1.36,2.47 3.24,4.38 5.66,5.74 2.42,1.36 5.17,2.04 8.28,2.04 2.15,0 4.2,-0.4 6.14,-1.19 1.94,-0.79 3.67,-1.93 5.18,-3.41 l 2.12,2.12 c -1.76,1.76 -3.8,3.12 -6.11,4.07 -2.31,0.95 -4.77,1.43 -7.38,1.43 -3.69,-0.04 -6.99,-0.85 -9.88,-2.47 z"
   id="path17" />
		<path
   class="st6"
   d="m 698.51,705.5 -3.97,-8.99 h -22 l -4.02,8.99 h -3.38 l 16.61,-37.02 h 3.6 l 16.61,37.02 z m -14.97,-33.75 -9.68,21.79 h 19.36 z"
   id="path18" />
		<path
   class="st6"
   d="m 730.14,668.47 h 3.12 v 34.01 h 20.84 v 3.01 h -23.96 z"
   id="path19" />
		<path
   class="st6"
   d="m 844.07,705.5 -3.97,-8.99 h -22 l -4.02,8.99 h -3.38 l 16.61,-37.02 h 3.6 l 16.61,37.02 z m -14.97,-33.75 -9.68,21.79 h 19.36 z"
   id="path20" />
		<path
   class="st6"
   d="m 897.49,668.47 v 3.01 h -13.28 v 34.01 h -3.12 v -34.01 h -13.28 v -3.01 z"
   id="path21" />
		<path
   class="st6"
   d="m 950.53,668.47 v 3.01 h -13.28 v 34.01 h -3.12 v -34.01 h -13.28 v -3.01 z"
   id="path22" />
		<path
   class="st6"
   d="m 983.2,703.75 c -2.84,-1.62 -5.05,-3.89 -6.64,-6.8 -1.59,-2.91 -2.38,-6.23 -2.38,-9.97 0,-3.74 0.79,-7.06 2.38,-9.97 1.59,-2.91 3.8,-5.17 6.64,-6.8 2.84,-1.62 6.07,-2.43 9.71,-2.43 3.64,0 6.87,0.81 9.71,2.43 2.84,1.62 5.05,3.89 6.64,6.8 1.59,2.91 2.38,6.23 2.38,9.97 0,3.74 -0.79,7.06 -2.38,9.97 -1.59,2.91 -3.8,5.17 -6.64,6.8 -2.84,1.62 -6.07,2.43 -9.71,2.43 -3.64,0 -6.88,-0.81 -9.71,-2.43 z m 17.74,-2.64 c 2.36,-1.38 4.2,-3.29 5.53,-5.74 1.32,-2.45 1.98,-5.24 1.98,-8.38 0,-3.14 -0.66,-5.93 -1.98,-8.38 -1.32,-2.45 -3.17,-4.36 -5.53,-5.74 -2.36,-1.38 -5.04,-2.06 -8.04,-2.06 -3.03,0 -5.73,0.69 -8.09,2.06 -2.36,1.38 -4.21,3.29 -5.53,5.74 -1.32,2.45 -1.98,5.25 -1.98,8.38 0,3.14 0.66,5.93 1.98,8.38 1.32,2.45 3.16,4.36 5.53,5.74 2.36,1.38 5.06,2.06 8.09,2.06 3,0 5.68,-0.69 8.04,-2.06 z"
   id="path23" />
		<path
   class="st6"
   d="m 1054.52,691.64 h -10.05 v 13.86 h -3.12 v -37.02 h 16.29 c 2.43,0 4.58,0.49 6.43,1.45 1.85,0.97 3.29,2.33 4.31,4.07 1.02,1.75 1.53,3.76 1.53,6.06 0,3.31 -1.03,6.03 -3.09,8.15 -2.06,2.12 -4.82,3.26 -8.28,3.44 l 12.69,13.86 h -4.07 z m -10.05,-20.15 v 17.14 h 13.22 c 2.79,0 5,-0.78 6.64,-2.33 1.64,-1.55 2.46,-3.63 2.46,-6.24 0,-2.61 -0.82,-4.69 -2.46,-6.24 -1.64,-1.55 -3.85,-2.33 -6.64,-2.33 z"
   id="path24" />
		<path
   class="st6"
   d="m 1126.82,668.47 h 3.17 v 37.02 h -3.12 l -23.48,-32 v 32 h -3.12 v -37.02 h 3.17 l 23.38,31.84 z"
   id="path25" />
		<path
   class="st6"
   d="m 1165.22,702.48 h 23.27 v 3.01 h -26.39 v -37.02 h 25.76 v 2.96 h -22.64 v 13.86 h 21.63 v 2.96 h -21.63 z"
   id="path26" />
		<path
   class="st6"
   d="m 1246.99,668.47 -14.7,22.27 v 14.76 h -3.12 v -14.86 l -14.54,-22.16 h 3.75 l 12.43,19.15 12.43,-19.15 h 3.75 z"
   id="path27" />
		<path
   class="st6"
   d="m 1312.31,702.48 h 23.27 v 3.01 h -26.39 v -37.02 h 25.76 v 2.96 h -22.64 v 13.86 h 21.63 v 2.96 h -21.63 z"
   id="path28" />
		<path
   class="st6"
   d="m 1378.58,686.56 13.59,18.93 h -3.81 l -5.5,-7.67 -6.35,-8.94 -11.79,16.61 h -3.75 l 13.54,-18.93 -12.64,-18.09 h 3.76 l 5.13,7.35 5.82,8.41 5.87,-8.41 5.08,-7.35 h 3.76 z"
   id="path29" />
		<path
   class="st6"
   d="m 1425.02,703.75 c -2.89,-1.62 -5.14,-3.9 -6.74,-6.82 -1.61,-2.93 -2.41,-6.24 -2.41,-9.94 0,-3.7 0.8,-7.02 2.41,-9.94 1.6,-2.93 3.85,-5.2 6.74,-6.82 2.89,-1.62 6.19,-2.43 9.89,-2.43 2.57,0 5,0.48 7.27,1.43 2.27,0.95 4.28,2.35 6,4.18 l -2.17,2.01 c -1.45,-1.52 -3.11,-2.66 -5,-3.44 -1.89,-0.77 -3.91,-1.16 -6.06,-1.16 -3.1,0 -5.86,0.68 -8.28,2.04 -2.42,1.36 -4.3,3.27 -5.66,5.74 -1.36,2.47 -2.04,5.27 -2.04,8.41 0,3.14 0.68,5.94 2.04,8.41 1.36,2.47 3.24,4.38 5.66,5.74 2.42,1.36 5.17,2.04 8.28,2.04 2.15,0 4.2,-0.4 6.14,-1.19 1.94,-0.79 3.67,-1.93 5.18,-3.41 l 2.12,2.12 c -1.76,1.76 -3.8,3.12 -6.11,4.07 -2.31,0.95 -4.77,1.43 -7.38,1.43 -3.69,-0.04 -6.99,-0.85 -9.88,-2.47 z"
   id="path30" />
		<path
   class="st6"
   d="m 1504.25,668.47 h 3.12 v 37.02 h -3.12 v -17.45 h -23.43 v 17.45 h -3.12 v -37.02 h 3.12 v 16.55 h 23.43 z"
   id="path31" />
		<path
   class="st6"
   d="m 1568.93,705.5 -3.97,-8.99 h -22 l -4.02,8.99 h -3.38 l 16.61,-37.02 h 3.6 l 16.61,37.02 z m -14.96,-33.75 -9.68,21.79 h 19.36 z"
   id="path32" />
		<path
   class="st6"
   d="m 1627.11,668.47 h 3.17 v 37.02 h -3.12 l -23.48,-32 v 32 h -3.12 v -37.02 h 3.17 l 23.38,31.84 z"
   id="path33" />
		<path
   class="st6"
   d="m 1693.17,686.03 v 14.17 c -3.84,3.95 -8.57,5.92 -14.17,5.92 -3.7,0 -6.99,-0.8 -9.86,-2.41 -2.87,-1.61 -5.11,-3.86 -6.72,-6.77 -1.61,-2.91 -2.41,-6.23 -2.41,-9.97 0,-3.74 0.8,-7.06 2.41,-9.97 1.6,-2.91 3.86,-5.17 6.77,-6.77 2.91,-1.6 6.23,-2.41 9.97,-2.41 2.54,0 4.95,0.47 7.22,1.4 2.27,0.93 4.33,2.32 6.16,4.15 l -2.06,2.17 c -1.52,-1.52 -3.25,-2.68 -5.21,-3.49 -1.96,-0.81 -3.99,-1.22 -6.11,-1.22 -3.14,0 -5.92,0.68 -8.36,2.04 -2.43,1.36 -4.32,3.25 -5.66,5.69 -1.34,2.43 -2.01,5.24 -2.01,8.41 0,3.17 0.67,5.98 2.01,8.41 1.34,2.43 3.21,4.33 5.61,5.69 2.4,1.36 5.15,2.04 8.25,2.04 2.12,0 4.14,-0.36 6.08,-1.08 1.94,-0.72 3.63,-1.75 5.08,-3.09 v -10 h -12.59 v -2.91 z"
   id="path34" />
		<path
   class="st6"
   d="m 1726.6,702.48 h 23.27 v 3.01 h -26.39 v -37.02 h 25.76 v 2.96 h -22.64 v 13.86 h 21.63 v 2.96 h -21.63 z"
   id="path35" />
	</g>
</g>
<g
   id="g37"
   transform="translate(-382.28,-327.89)">
		<path
   class="st0"
   d="m 1756.01,330.81 h -8.05 v -2.92 h 19.42 v 2.92 h -8.05 v 20.56 h -3.32 z"
   id="path36" />
		<path
   class="st0"
   d="m 1793.07,351.38 -0.03,-17.11 -8.49,14.26 h -1.54 l -8.49,-14.16 v 17.01 h -3.22 V 327.9 h 2.75 l 9.79,16.5 9.66,-16.5 h 2.75 l 0.03,23.48 z"
   id="path37" />
	</g><g
   id="g43"
   transform="translate(-382.28,-327.89)">
		<g
   id="g38">
			
				<linearGradient
   id="SVGID_00000047058468692814685810000013483180021823440286_"
   gradientUnits="userSpaceOnUse"
   x1="388.7012"
   y1="487.927"
   x2="859.92157"
   y2="487.927">
				<stop
   offset="0"
   style="stop-color:#B91319"
   id="stop37" />
				<stop
   offset="1"
   style="stop-color:#ED1F24"
   id="stop38" />
			</linearGradient>
			<path
   style="fill:url(#SVGID_00000047058468692814685810000013483180021823440286_)"
   d="M 613.53,618.05 613.16,461.91 554.6,618.05 h -49.9 l -59.88,-152.8 v 152.8 H 382.28 V 357.81 h 74.42 l 72.8,161.72 71.68,-161.72 h 73.68 l 0.74,260.24 z"
   id="path38" />
		</g>
		<g
   id="g40">
			
				<linearGradient
   id="SVGID_00000036958510346504396350000001994888503575144879_"
   gradientUnits="userSpaceOnUse"
   x1="388.7012"
   y1="487.927"
   x2="859.92157"
   y2="487.927">
				<stop
   offset="0"
   style="stop-color:#B91319"
   id="stop39" />
				<stop
   offset="1"
   style="stop-color:#ED1F24"
   id="stop40" />
			</linearGradient>
			<path
   style="fill:url(#SVGID_00000036958510346504396350000001994888503575144879_)"
   d="m 1079.63,618.05 -52.22,-79.16 -46.8,79.16 H 908.72 L 993.43,485.7 909.2,357.81 h 71.41 l 52.47,79.3 46.55,-79.3 h 71.62 l -82.67,132.12 88.88,128.11 h -77.83 z"
   id="path40" />
		</g>
		<g
   id="g42">
			
				<linearGradient
   id="SVGID_00000083810615197278116850000014194312156790347147_"
   gradientUnits="userSpaceOnUse"
   x1="388.7012"
   y1="487.927"
   x2="859.92157"
   y2="487.927">
				<stop
   offset="0"
   style="stop-color:#B91319"
   id="stop41" />
				<stop
   offset="1"
   style="stop-color:#ED1F24"
   id="stop42" />
			</linearGradient>
			<path
   style="fill:url(#SVGID_00000083810615197278116850000014194312156790347147_)"
   d="m 847.16,572.94 -96.5,0.96 -18.24,44.15 H 665 l 95.97,-260.24 h 76.09 l 97,260.24 h -70.15 z m -17.12,-55.06 -30.53,-98.33 -31.04,98.33 z"
   id="path42" />
		</g>
	</g><g
   id="g50"
   transform="translate(-382.28,-327.89)">
		
			<radialGradient
   id="SVGID_00000006680267657923254770000015534306641996136324_"
   cx="1135.4548"
   cy="527.1933"
   r="608.76862"
   gradientUnits="userSpaceOnUse">
			<stop
   offset="0.1425"
   style="stop-color:#E62B2B"
   id="stop43" />
			<stop
   offset="1"
   style="stop-color:#FFC41A"
   id="stop44" />
		</radialGradient>
		<polygon
   style="fill:url(#SVGID_00000006680267657923254770000015534306641996136324_)"
   points="1574.58,618.05 1538.73,618.05 1538.73,357.81 1569.76,357.81 1680.52,501.67 1680.52,357.81 1745.97,357.81 1745.97,618.05 1685.36,618.05 1574.58,474.52 "
   id="polygon44" />
		
			<radialGradient
   id="SVGID_00000019672097589922056840000015869612646740894121_"
   cx="1135.4548"
   cy="527.1933"
   r="517.33112"
   gradientUnits="userSpaceOnUse">
			<stop
   offset="0"
   style="stop-color:#E62B2B"
   id="stop45" />
			<stop
   offset="1"
   style="stop-color:#FFC41A"
   id="stop46" />
		</radialGradient>
		<polygon
   style="fill:url(#SVGID_00000019672097589922056840000015869612646740894121_)"
   points="1499.01,560.79 1460.55,467.94 1460.55,357.81 1528.58,357.81 1528.58,618.05 1522.75,618.05 1509.15,585.27 "
   id="polygon46" />
		
			<radialGradient
   id="SVGID_00000076586528524731554890000003364607289643160499_"
   cx="1135.4548"
   cy="527.1933"
   r="517.33112"
   gradientUnits="userSpaceOnUse">
			<stop
   offset="0"
   style="stop-color:#E62B2B"
   id="stop47" />
			<stop
   offset="1"
   style="stop-color:#FFC41A"
   id="stop48" />
		</radialGradient>
		<path
   style="fill:url(#SVGID_00000076586528524731554890000003364607289643160499_)"
   d="M 1509.15,611.77 1499,587.28 1460.54,494.47 1450.4,470 1403.93,357.8 h -56.11 l -11.56,27.82 c 14.76,17.38 22.23,38.33 22.23,62.51 0,28.87 -10.61,53.27 -31.5,72.54 -16.09,15.14 -35.65,24.34 -58.3,27.48 l -29.08,69.89 h 71.02 l 15.61,-38.67 h 99.24 l 15.25,38.67 h 71.02 z m -159.1,-92.25 26.04,-64.69 25.61,64.69 z"
   id="path48" />
		
			<radialGradient
   id="SVGID_00000049181642032514512650000011785090276508118949_"
   cx="1135.4548"
   cy="527.1933"
   r="517.33112"
   gradientUnits="userSpaceOnUse">
			<stop
   offset="0"
   style="stop-color:#E62B2B"
   id="stop49" />
			<stop
   offset="1"
   style="stop-color:#FFC41A"
   id="stop50" />
		</radialGradient>
		<path
   style="fill:url(#SVGID_00000049181642032514512650000011785090276508118949_)"
   d="m 1331.79,396.34 c -2.19,-3 -4.66,-5.88 -7.37,-8.65 -1.24,-1.32 -2.56,-2.6 -3.95,-3.84 -18.59,-17.48 -41.98,-26.04 -69.88,-26.04 h -119.72 v 260.24 h 68.05 v -78.82 h 51.68 c 3.76,0 7.44,-0.16 11.02,-0.47 3.99,-0.34 7.84,-0.88 11.64,-1.62 17.98,-3.51 33.56,-11.43 46.85,-23.93 18.95,-17.48 28.26,-39.41 28.26,-65.04 -0.01,-19.74 -5.53,-37.08 -16.58,-51.83 z m -81.19,80.42 h -51.68 v -56.49 h 51.68 c 15.25,0 27.15,11.9 27.15,27.89 -0.01,16.33 -11.91,28.6 -27.15,28.6 z"
   id="path50" />
	</g>
</svg>
